<svg width="236" height="324" viewBox="0 0 236 324" fill="none" xmlns="http://www.w3.org/2000/svg">
<path fill-rule="evenodd" clip-rule="evenodd" d="M0 263.896C0 294.675 23.1095 320.05 52.9054 323.58C55.6717 323.908 57.1676 320.719 55.334 318.622C26.4434 285.581 50.9281 207.623 55.3334 194.514C55.7629 193.236 56.4441 192.11 57.342 191.104C57.487 190.942 57.6068 190.759 57.6977 190.561L59.6641 186.281C60.2369 185.034 60.6203 183.709 60.8019 182.349L63.4252 162.699L62.1845 155.394C61.8805 153.604 61.5087 151.836 61.0102 150.09C59.2236 143.834 54.2782 128.006 48.1512 120.944L44.155 116.338C19.0041 87.3482 19.6031 44.0748 45.5468 15.7943L60.0359 0C26.879 0 0 26.9092 0 60.1034V263.896Z" fill="white"/>
<path d="M235.762 60.1034V263.896C235.762 297.091 208.883 324 175.726 324C210.319 284.436 211.091 225.579 177.549 185.12C176.367 183.694 175.689 181.917 175.622 180.066L175.034 163.915L175.413 134.841C175.616 132.128 176.728 129.564 178.569 127.563L180.114 125.886C211.568 91.7213 211.616 39.1227 180.222 4.90163L175.726 0C208.883 0 235.762 26.9092 235.762 60.1034Z" fill="white"/>
<rect x="73.7617" y="117.881" width="88.2382" height="88.2382" rx="28.2638" fill="#DDFF00"/>
</svg>
